{"title":"Jeune &amp; Jolie (Young &amp; Beautiful) 2013 BDRemux 1080p GOR","uid":9699509,"size":24372970893,"categoryP":"video","categoryS":"hd___movies","magnet":"?xt=urn:btih:061a5363878420be6f7b42a3a6732b38c684e2a2&amp;dn=Jeune+%26amp%3B+Jolie+%28Young+%26amp%3B+Beautiful%29+2013+BDRemux+1080p+GOR&amp;tr=udp%3A%2F%2Ftracker.openbittorrent.com%3A80&amp;tr=udp%3A%2F%2Fopen.demonii.com%3A1337&amp;tr=udp%3A%2F%2Ftracker.coppersurfer.tk%3A6969&amp;tr=udp%3A%2F%2Fexodus.desync.com%3A6969","seeders":2,"leechers":1,"uploader":"ABSTAIN","files":1,"time":1393976019,"description":"C:/GORESEWAGE/Jeune &amp; Jolie (Young &amp; Beautiful) 2013 BDRemux 1080p GORESEWAGE.mkv\n  General\n    Unique ID : 178845067136356424029068695181406999858 (0x868C4E98E352AA79AD320839E0DF9532)\n    Complete name : C:/GORESEWAGE/Jeune &amp; Jolie (Young &amp; Beautiful) 2013 BDRemux 1080p GORESEWAGE.mkv\n    Format : Matroska\n    Format version : Version 4 / Version 2\n    File size : 22.7 GiB\n    Duration : 1h 33mn\n    Overall bit rate mode : Variable\n    Overall bit rate : 34.8 Mbps\n    Movie name : Jeune &amp; Jolie (Young &amp; Beautiful) 2013 BDRemux 1080p GORESEWAGE\n    Encoded date : UTC 2014-03-04 21:49:55\n    Writing application : mkvmerge v6.8.0 ('Theme for Great Cities') 64bit built on Mar  2 2014 21:34:26\n    Writing library : libebml v1.3.0 + libmatroska v1.4.1\n    Attachment : Yes\n  Video #1\n    ID : 1\n    Format : AVC\n    Format/Info : Advanced Video Codec\n    Format profile : &lt;a class=&quot;__cf_email__&quot; href=&quot;/cdn-cgi/l/email-protection&quot; data-cfemail=&quot;d29abbb5ba929ee6fce3&quot;&gt;[email&amp;#160;protected]&lt;/a&gt;&lt;script cf-hash='f9e31' type=&quot;text/javascript&quot;&gt;\n/* &lt;![CDATA[ */!function(){try{var t=&quot;currentScript&quot;in document?document.currentScript:function(){for(var t=document.getElementsByTagName(&quot;script&quot;),e=t.length;e--;)if(t[e].getAttribute(&quot;cf-hash&quot;))return t[e]}();if(t&amp;&amp;t.previousSibling){var e,r,n,i,c=t.previousSibling,a=c.getAttribute(&quot;data-cfemail&quot;);if(a){for(e=&quot;&quot;,r=parseInt(a.substr(0,2),16),n=2;a.length-n;n+=2)i=parseInt(a.substr(n,2),16)^r,e+=String.fromCharCode(i);e=document.createTextNode(e),c.parentNode.replaceChild(e,c)}}}catch(u){}}();/* ]]&gt; */&lt;/script&gt;\n    Format settings, CABAC : Yes\n    Format settings, ReFrames : 2 frames\n    Codec ID : V_MPEG4/ISO/AVC\n    Duration : 1h 33mn\n    Bit rate mode : Variable\n    Width : 1 920 pixels\n    Height : 1 080 pixels\n    Display aspect ratio : 16:9\n    Frame rate mode : Constant\n    Frame rate : 23.976 fps\n    Color space : YUV\n    Chroma subsampling : 4:2:0\n    Bit depth : 8 bits\n    Scan type : Progressive\n    Title : Jeune &amp; Jolie (Young &amp; Beautiful) 2013 BDRemux 1080p GORESEWAGE\n    Language : French\n    Default : Yes\n    Forced : No\n  Audio #2\n    ID : 2\n    Format : AC-3\n    Format/Info : Audio Coding 3\n    Mode extension : CM (complete main)\n    Format settings, Endianness : Big\n    Codec ID : A_AC3\n    Duration : 1h 33mn\n    Bit rate mode : Constant\n    Bit rate : 384 Kbps\n    Channel count : 6 channels\n    Channel positions : Front: L C R, Side: L R, LFE\n    Sampling rate : 48.0 KHz\n    Bit depth : 16 bits\n    Compression mode : Lossy\n    Stream size : 256 MiB (1%)\n    Title : Dub DVD R5\n    Language : Russian\n    Default : Yes\n    Forced : No\n  Audio #3\n    ID : 3\n    Format : DTS\n    Format/Info : Digital Theater Systems\n    Format profile : MA / Core\n    Mode : 16\n    Format settings, Endianness : Big\n    Codec ID : A_DTS\n    Duration : 1h 33mn\n    Bit rate mode : Variable\n    Bit rate : Unknown / 1 509 Kbps\n    Channel count : 6 channels\n    Channel positions : Front: L C R, Side: L R, LFE\n    Sampling rate : 48.0 KHz\n    Bit depth : 16 bits\n    Compression mode : Lossless / Lossy\n    Title : Original\n    Language : French\n    Default : No\n    Forced : No\n  Audio #4\n    ID : 4\n    Format : DTS\n    Format/Info : Digital Theater Systems\n    Mode : 16\n    Format settings, Endianness : Big\n    Codec ID : A_DTS\n    Duration : 1h 33mn\n    Bit rate mode : Constant\n    Bit rate : 768 Kbps\n    Channel count : 2 channels\n    Channel positions : Front: L R\n    Sampling rate : 48.0 KHz\n    Bit depth : 16 bits\n    Compression mode : Lossy\n    Stream size : 513 MiB (2%)\n    Title : Description\n    Language : French\n    Default : No\n    Forced : No\n  Text #5\n    ID : 5\n    Format : UTF-8\n    Codec ID : S_TEXT/UTF8\n    Codec ID/Info : UTF-8 Plain Text\n    Title : Forced\n    Language : French\n    Default : No\n    Forced : No\n  Text #6\n    ID : 6\n    Format : UTF-8\n    Codec ID : S_TEXT/UTF8\n    Codec ID/Info : UTF-8 Plain Text\n    Title : Full\n    Language : English\n    Default : No\n    Forced : No\n  Menu\n    00:00:00.000 : en:00:00:00.000\n    00:02:22.434 : en:00:02:22.434\n    00:07:35.288 : en:00:07:35.288\n    00:16:08.759 : en:00:16:08.759\n    00:22:17.253 : en:00:22:17.253\n    00:32:00.919 : en:00:32:00.919\n    00:36:23.973 : en:00:36:23.973\n    00:46:36.794 : en:00:46:36.794\n    00:54:12.082 : en:00:54:12.082\n    01:05:16.871 : en:01:05:16.871\n    01:10:03.366 : en:01:10:03.366\n    01:18:27.286 : en:01:18:27.286\n    01:23:39.973 : en:01:23:39.973\n    01:30:24.669 : en:01:30:24.669","torrent":{"xt":"urn:btih:061a5363878420be6f7b42a3a6732b38c684e2a2","amp;dn":"Jeune+%26amp%3B+Jolie+%28Young+%26amp%3B+Beautiful%29+2013+BDRemux+1080p+GOR","amp;tr":["udp%3A%2F%2Ftracker.openbittorrent.com%3A80","udp%3A%2F%2Fopen.demonii.com%3A1337","udp%3A%2F%2Ftracker.coppersurfer.tk%3A6969","udp%3A%2F%2Fexodus.desync.com%3A6969"],"infoHash":"061a5363878420be6f7b42a3a6732b38c684e2a2","infoHashBuffer":{"type":"Buffer","data":[6,26,83,99,135,132,32,190,111,123,66,163,166,115,43,56,198,132,226,162]},"announce":[],"urlList":[]}}